<mxfile host="app.diagrams.net" modified="2024-01-25T02:01:47.599Z" agent="Mozilla/5.0 (Windows NT 10.0; Win64; x64) AppleWebKit/537.36 (KHTML, like Gecko) Chrome/120.0.0.0 Safari/537.36 Edg/120.0.0.0" version="23.0.0" etag="1ARFEGmOOJ8pv1g0U14O" type="github">
  <diagram name="第 1 页" id="o0Cs_NCVIRpv6oDMe0XT">
    <mxGraphModel>
      <root>
        <mxCell id="0" />
        <mxCell id="1" parent="0" />
      </root>
    </mxGraphModel>
  </diagram>
</mxfile>
